<svg xmlns="http://www.w3.org/2000/svg" viewBox="0 0 1000 1000" enable-background="new 0 0 1000 1000"><path fill="#00dbe1" d="M143.6 54.5h712.7c36.9 0 68.4 13.1 94.5 39.2 26.1 26.1 39.2 57.6 39.2 94.5v445.5c0 36.9-13.1 68.4-39.2 94.5-26.1 26.1-57.6 39.2-94.5 39.2h-311.8v89.1h133.6c12.3 0 22.8 4.3 31.5 13s13 19.2 13 31.5-4.3 22.8-13 31.5-19.2 13.1-31.5 13.1h-356.3c-12.3 0-22.8-4.4-31.5-13.1s-13.1-19.2-13.1-31.5 4.4-22.8 13.1-31.5 19.2-13 31.5-13h133.6v-89.1h-311.8c-36.9 0-68.4-13.1-94.5-39.2-26-26.2-39.1-57.7-39.1-94.6v-445.4c0-36.9 13.1-68.4 39.2-94.5 26.1-26.1 57.5-39.2 94.4-39.2zm712.8 89.1h-712.8c-12.3 0-22.8 4.4-31.5 13.1s-13.1 19.2-13.1 31.5v445.5c0 12.3 4.4 22.8 13.1 31.5s19.2 13 31.5 13h712.7c12.3 0 22.8-4.3 31.5-13s13.1-19.2 13.1-31.5v-445.5c0-12.3-4.3-22.8-13.1-31.5-8.6-8.7-19.1-13.1-31.4-13.1z"/></svg>
